<?xml version="1.0" encoding="UTF-8" standalone="no"?>
<!-- Created with Inkscape (http://www.inkscape.org/) -->

<svg
   width="147.55348mm"
   height="183.27467mm"
   viewBox="0 0 147.55348 183.27468"
   version="1.1"
   id="svg5"
   inkscape:version="1.1.2 (b8e25be833, 2022-02-05)"
   sodipodi:docname="Billionaire Boys Club Icon.svg"
   xmlns:inkscape="http://www.inkscape.org/namespaces/inkscape"
   xmlns:sodipodi="http://sodipodi.sourceforge.net/DTD/sodipodi-0.dtd"
   xmlns="http://www.w3.org/2000/svg"
   xmlns:svg="http://www.w3.org/2000/svg">
  <sodipodi:namedview
     id="namedview7"
     pagecolor="#ffffff"
     bordercolor="#666666"
     borderopacity="1.0"
     inkscape:pageshadow="2"
     inkscape:pageopacity="0.0"
     inkscape:pagecheckerboard="0"
     inkscape:document-units="mm"
     showgrid="false"
     inkscape:zoom="0.64052329"
     inkscape:cx="320.05081"
     inkscape:cy="588.58125"
     inkscape:window-width="1920"
     inkscape:window-height="1017"
     inkscape:window-x="-8"
     inkscape:window-y="-8"
     inkscape:window-maximized="1"
     inkscape:current-layer="layer1" />
  <defs
     id="defs2" />
  <g
     inkscape:label="Layer 1"
     inkscape:groupmode="layer"
     id="layer1"
     transform="translate(32.177538,-30.528547)">
    <g
       transform="matrix(0.07917756,0,0,-0.07917756,-68.609746,213.80322)"
       id="g12">
      <path
         id="path14"
         style="fill:#100f0d;fill-opacity:1;fill-rule:evenodd;stroke:none"
         d="m 1147.9,2170.94 v -9.11 l -38.24,-44.88 -17.61,-12.14 -8.5,-5.48 -36.42,-6.66 -17.6,4.85 v 7.29 l 66.16,72.81 41.28,3.65 z m -222.783,-201.44 7.289,8.5 43.086,58.84 21.25,17.62 6.678,1.82 5.47,-3.05 4.85,-3.64 4.26,-3.64 3.03,-4.24 1.82,-4.26 0.61,-4.86 v -4.84 l -0.61,-6.07 -10.92,-26.09 -83.168,-112.86 -4.867,-4.25 -4.852,-3.63 -9.098,-4.85 -9.109,-1.23 -4.863,0.63 -3.629,1.21 -18.832,10.29 -31.559,36.43 -1.816,6.67 0.609,5.45 1.813,4.26 4.863,2.43 12.141,5.45 40.054,13.95 z m -182.109,-38.21 v -3.67 l 15.781,-22.43 26.106,-36.42 13.957,-17.59 10.324,-12.11 40.062,-6.69 150.535,27.91 17.607,4.84 4.26,2.43 4.85,3.05 5.46,4.24 6.68,5.46 6.07,6.68 7.29,7.88 7.28,9.11 8.49,9.69 92.28,123.17 4.85,17.62 1.21,8.48 v 7.29 l -2.42,7.28 -3.64,6.66 -1.82,3.04 10.32,7.28 24.28,10.32 36.41,26.09 30.97,48.54 v 15.77 l -1.82,4.25 -2.43,3.63 -3.03,3.03 -4.25,2.44 -5.47,2.43 -6.67,1.82 -7.9,1.82 -7.89,1.22 -184.53,-13.97 -12.14,-5.45 -29.144,-22.46 -92.281,-103.74 -77.684,-114.69 -12.145,6.69 -3.64,5.45 -19.426,-8.5 -17.605,-9.69 -15.79,-8.52 -13.347,-9.68 v 0" />
      <path
         id="path16"
         style="fill:#100f0d;fill-opacity:1;fill-rule:evenodd;stroke:none"
         d="m 1208.6,2035.63 15.17,-99.49 74.68,59.45 -4.86,25.47 -5.46,23.67 -6.08,23.06 -6.06,21.25 -67.39,-53.41 v 0" />
      <path
         id="path18"
         style="fill:#100f0d;fill-opacity:1;fill-rule:evenodd;stroke:none"
         d="m 835.277,2016.22 3.036,57.04 -43.098,-34.58 -3.649,-57.04 43.711,34.58 v 0" />
      <path
         id="path20"
         style="fill:#100f0d;fill-opacity:1;fill-rule:evenodd;stroke:none"
         d="m 1316.05,1394.92 h -15.79 l -26.1,1.81 -57.06,-10.32 -29.75,-13.95 -24.28,-15.78 -5.46,-4.85 -3.65,-4.85 -1.82,-4.26 0.61,-4.83 3.65,-10.33 2.42,-3.65 2.43,-3.02 6.08,-4.85 6.06,-1.24 h 3.64 l 3.65,0.63 18.81,8.48 19.44,5.46 26.08,8.52 29.15,4.83 31.57,7.3 13.95,15.77 4.86,18.81 0.61,4.23 0.61,2.43 -1.22,1.84 h -1.82 l -6.67,1.82 v 0" />
      <path
         id="path22"
         style="fill:#100f0d;fill-opacity:1;fill-rule:evenodd;stroke:none"
         d="m 1199.49,1259.62 -16.99,8.47 -13.96,-1.22 -7.29,-1.81 -34.59,-21.24 -6.69,-20.63 8.5,-12.12 15.79,-6.69 29.13,-3.62 23.07,3.62 17,13.35 10.31,21.26 -3.03,10.29 -5.46,3.65 -15.79,6.69 v 0" />
      <path
         id="path24"
         style="fill:#100f0d;fill-opacity:1;fill-rule:evenodd;stroke:none"
         d="m 854.098,1287.52 1.211,3.03 0.605,1.82 -0.605,1.83 -1.211,0.59 -3.035,0.61 h -3.04 -4.25 l -5.46,-1.2 -20.637,3.62 -29.137,10.32 -29.75,3.64 -24.281,-5.46 -22.461,-10.32 -10.313,-10.3 -3.039,-6.07 -0.609,-6.07 0.609,-5.47 3.039,-4.85 15.168,-8.48 27.926,-5.48 h 18.817 l 23.07,1.83 20.64,4.86 18.817,9.09 27.926,22.46 v 0" />
      <path
         id="path26"
         style="fill:#100f0d;fill-opacity:1;fill-rule:evenodd;stroke:none"
         d="m 890.52,1069.07 -5.469,-8.48 -3.031,-9.11 -1.207,-9.7 1.207,-9.71 3.644,-20.63 -1.832,-6.67 v -13.969 l -8.484,-27.891 12.136,-18.82 15.161,-19.41 10.328,-12.141 12.144,-8.488 19.43,-1.821 13.953,1.821 6.676,4.859 13.969,10.91 13.957,15.18 5.461,17.59 -9.094,13.961 -10.324,12.129 -13.969,18.808 -18.821,26.102 -10.316,26.07 -1.82,29.74 1.82,22.46 1.223,18.81 -0.617,5.44 -0.606,1.82 v 0.61 l -1.211,1.21 h -0.609 l -1.813,-1.82 -8.511,-13.95 -33.375,-44.91 v 0" />
      <path
         id="path28"
         style="fill:#100f0d;fill-opacity:1;fill-rule:evenodd;stroke:none"
         d="m 760.613,1176.47 -12.14,-15.78 -10.321,-10.3 12.141,-8.5 29.137,-17.6 27.925,3.64 22.458,13.96 24.285,20.65 -3.649,8.48 -13.347,1.82 -15.789,7.28 -19.422,8.49 -10.325,1.82 -6.671,-3.65 -13.961,-6.66 -10.321,-3.65 v 0" />
      <path
         id="path30"
         style="fill:#100f0d;fill-opacity:1;fill-rule:evenodd;stroke:none"
         d="m 1106.01,808.801 -3.64,4.23 -3.64,3.039 -7.9,5.461 -9.1,4.258 -10.32,1.813 -13.96,5.457 h -1.82 l -36.43,-9.098 -22.458,-3.051 -17.597,-5.441 -29.743,-22.449 -3.047,-3.649 -0.597,-3.641 0.597,-3.628 3.047,-4.852 15.774,-13.961 22.461,-3.648 h 21.253 l 6.67,-4.852 v -3.641 l 19.43,-8.507 20.64,-1.813 12.13,1.813 15.79,3.668 12.14,4.839 6.68,12.141 8.5,9.09 5.46,10.312 v 3.637 3.043 l -1.21,6.078 -3.65,7.27 -5.46,6.082 v 0" />
      <path
         id="path32"
         style="fill:#100f0d;fill-opacity:1;fill-rule:evenodd;stroke:none"
         d="m 1949.79,982.32 38.24,37.62 22.46,15.77 18.82,13.95 18.2,12.75 16.4,12.75 15.18,12.13 12.74,12.12 12.14,10.93 10.33,10.93 9.09,10.33 6.68,10.9 6.08,10.31 5.46,9.73 4.85,8.48 3.65,8.51 3.03,7.88 1.82,7.28 1.21,6.07 1.82,24.28 24.29,-5.49 10.31,-30.94 0.62,-12.14 v -12.12 l -1.23,-5.47 -0.6,-6.07 -2.42,-10.92 -8.51,-24.26 -8.49,-14.56 -10.93,-15.16 -13.35,-15.17 -15.79,-15.79 -67.98,-54 -34.6,-24.27 -57.06,-43.68 -27.93,-1.832 -8.49,5.461 -1.83,10.93 0.6,5.461 1.84,4.839 1.81,6.082 3.04,5.45 z m 12.14,337.96 15.17,-8.5 6.07,-4.85 7.28,-7.9 6.07,-9.7 3.05,-5.47 3.63,-6.66 2.43,-6.05 3.03,-7.3 1.83,-7.88 2.43,-9.11 0.61,-9.11 1.2,-10.91 v -11.53 l 0.61,-12.75 v -15.78 l -6.68,-29.71 -20.63,-17 -21.25,6.69 -4.85,3.63 -3.64,4.24 -3.65,5.45 -3.64,5.48 -3.64,7.28 -3.04,7.89 -2.43,9.09 -2.43,9.11 -5.46,29.73 -1.82,55.2 0.6,7.3 2.44,6.05 2.43,5.48 3.64,4.24 3.63,4.85 4.87,3.65 5.45,3.03 z m -460.13,985.97 -193.04,8.48 -77.7,-8.48 -74.66,-17.6 -18.82,-4.26 -20.04,-6.66 -21.25,-6.67 -21.85,-8.5 -23.67,-9.11 -24.28,-10.3 -26.1,-10.93 -26.109,-12.75 -27.926,-12.74 -27.921,-14.57 -27.914,-16.37 -26.711,-17.6 -27.926,-18.8 -27.918,-20.62 -27.926,-21.86 -26.719,-23.65 -28.515,-24.28 -26.11,-26.09 -26.105,-27.9 -24.277,-30.34 -24.286,-31.55 -22.461,-33.39 -22.461,-35.18 -20.023,-37.61 -20.039,-38.23 -9.098,-20.03 -7.898,-21.23 -8.492,-20.64 -7.293,-21.83 -12.75,-46.11 -6.676,-23.06 -5.453,-24.27 -9.113,-49.76 -7.286,-51.57 -3.027,-26.7 -1.824,-27.91 v -70.98 l 10.316,-179.01 4.86,-55.2 3.043,-27.9 4.242,-29.14 3.64,-28.52 4.86,-29.73 10.926,-60.069 6.066,-29.742 7.285,-29.711 7.285,-28.508 9.102,-29.121 8.496,-27.918 10.32,-27.91 10.328,-27.32 12.133,-27.281 12.141,-15.18 2.437,-2.43 1.203,-1.219 0.614,-0.601 1.211,-1.219 6.074,-3.633 4.851,-1.207 6.071,1.207 1.215,3.043 v 1.199 0.61 h 0.601 l 1.227,1.199 1.211,5.473 1.211,5.457 v 7.89 4.871 2.418 1.211 0.602 h 0.609 l -0.609,1.219 v 0.601 1.199 2.45 4.859 11.531 l -2.422,14.559 -2.434,15.172 -1.82,8.469 -1.211,7.91 -2.438,17.59 -2.418,9.699 -1.211,4.871 -0.609,2.422 v 1.816 l -3.644,20.012 -2.434,10.941 -1.211,5.449 -0.609,4.872 -3.633,21.828 -33.391,215.39 -3.644,32.16 -2.43,32.77 -2.426,33.36 -1.215,34.61 -1.211,35.78 -0.605,36.39 v 37.64 l 1.211,38.21 -18.817,19.43 -20.636,51.57 -0.614,9.73 0.614,9.08 1.808,10.32 3.645,9.72 3.648,10.89 5.461,10.93 6.676,11.54 7.898,11.51 22.458,30.95 -1.821,-3.65 52.207,41.89 6.067,5.44 7.285,4.87 15.785,9.7 7.887,5.47 9.109,4.84 18.813,9.73 20.043,10.9 22.457,9.71 23.671,10.93 25.493,9.7 26.105,10.93 28.527,9.08 30.356,8.51 32.164,7.29 33.387,7.27 35.207,5.45 37.035,5.49 38.855,3.62 92.26,4.86 23.07,0.6 24.88,-0.6 26.72,-1.22 29.14,-3.02 30.34,-3.04 32.18,-5.48 34,-5.45 35.81,-7.26 35.81,-7.91 37.03,-10.31 37.63,-12.12 38.86,-15.17 38.85,-16.39 40.06,-18.82 40.68,-20.63 41.87,-23.66 20.65,-15.78 41.88,-22.44 2.43,-0.6 3.03,-1.22 6.07,-1.82 10.93,-1.2 9.72,1.2 1.82,1.22 2.42,0.6 4.86,1.82 5.46,12.14 0.61,6.05 -0.61,3.64 v 3.05 l -1.21,2.42 -0.61,1.22 v 0.61 l -1.21,3.63 -3.65,8.51 -3.64,5.45 -4.24,4.85 -1.23,1.2 -0.6,0.62 -1.22,1.23 -2.42,2.42 -5.46,4.84 -7.29,6.07 -2.43,1.84 -1.81,1.2 -3.65,2.43 -9.1,6.07 -4.86,3.02 -4.25,2.45 -48.57,27.89 -12.74,7.29 -13.96,7.28 -15.18,7.28 -15.78,7.27 -17.61,8.51 -18.81,7.28 -20.03,8.49 -21.25,7.28 -23.67,8.49 -24.28,7.88 -26.11,7.29 -26.1,6.67 -27.92,7.3 -28.52,6.05 -29.77,6.07 -30.94,5.47 -284.71,10.33 -43.095,-3.06 -108.046,-13.96 -140.227,-33.36 -37.035,-11.52 -18.203,-6.69 -16.996,-7.88 -34.602,-15.77 -32.183,-18.83 1.835,21.25 0.602,7.89 1.816,9.1 2.422,10.3 4.258,10.93 4.254,13.35 6.063,13.96 6.675,15.18 8.512,16.36 7.887,18.81 10.32,18.21 11.527,18.81 12.75,18.81 13.965,20.01 15.172,20.02 16.387,20.65 17.605,20.62 18.215,21.25 20.027,20.63 21.247,20.01 23.062,19.41 23.688,19.43 25.488,18.8 27.316,18.21 28.535,16.98 29.739,17.6 15.183,8.49 16.379,7.28 32.788,15.17 35.21,12.75 35.81,12.14 38.24,10.31 39.46,9.09 41.89,7.9 59.49,1.21 h 13.35 l 15.18,-1.81 15.77,-1.82 17.62,-3.66 16.98,-4.24 18.83,-5.46 19.42,-6.07 21.25,-7.88 20.63,-8.51 20.64,-11.5 20.65,-12.76 10.32,-7.28 10.92,-8.49 20.03,-16.38 20.63,-19.43 20.65,-20.63 20.64,-23.67 9.71,-12.12 10.32,-13.35 19.43,-28.51 18.21,-31.55 8.49,-16.38 9.11,-18.2 7.89,-17.59 8.5,-19.44 15.78,-40.04 7.3,-20.63 7.88,-22.44 14.58,-46.11 12.13,-29.14 30.95,-66.12 49.18,-62.5 6.08,-6.07 6.67,-5.46 7.28,-4.24 7.28,-4.27 7.29,-2.42 7.89,-1.82 7.89,-1.2 8.5,-0.61 27.32,13.96 4.85,4.24 5.46,4.84 4.25,6.09 4.86,6.66 1.21,4.24 1.83,3.65 3.64,9.1 2.43,9.71 1.21,5.46 1.82,4.87 v 6.66 l 0.6,6.05 v 6.69 6.66 l -1.21,7.9 -1.21,7.28 -1.21,4.25 -0.61,3.64 -1.22,7.88 -1.81,4.87 -1.22,4.24 -3.04,8.48 -3.64,9.73 -1.82,4.84 -1.21,4.27 -4.86,10.3 -2.43,5.47 -1.82,4.84 -4.85,10.93 -4.86,10.3 -12.14,22.46 -12.14,20.01 -22.46,37.03 -21.85,33.36 -10.32,15.18 -9.72,12.74 -69.2,81.91 -36.42,48.53 -2.43,8.51 1.22,7.28 0.61,4.23 1.82,3.66 5.45,7.27 44.92,5.45 7.9,-2.42 9.11,-4.25 9.71,-5.45 10.93,-6.69 10.93,-7.87 11.53,-9.72 12.14,-10.32 13.35,-12.72 13.35,-15.17 27.93,-34.6 20.04,-26.68 20.02,-27.31 18.82,-26.7 17.6,-27.91 15.18,-26.71 15.17,-27.89 13.96,-27.92 12.75,-27.9 10.93,-26.72 10.31,-26.67 9.73,-25.5 1.82,-6.05 2.43,-6.7 4.84,-13.35 7.29,-24.25 7.29,-24.88 6.07,-23.66 2.42,-11.54 3.04,-12.13 4.25,-21.83 0.61,-4.87 1.21,-5.46 2.42,-10.92 1.23,-9.7 0.61,-4.86 1.2,-5.46 3.65,-19.41 0.6,-8.5 1.22,-9.11 2.42,-17 1.22,-15.16 0.61,-7.27 1.21,-7.91 1.82,-58.83 v -36.41 l -0.6,-2.43 v -3.02 -6.1 -10.29 h -0.61 v -0.6 -1.22 -2.43 -4.86 l -0.61,-3.62 v -4.26 l -1.21,-2.42 -0.61,-1.23 v -1.82 l -1.22,-2.42 -0.61,-1.22 v -1.81 l -2.42,-3.04 -2.43,-2.42 -13.96,-3.65 -18.82,16.97 -12.13,29.75 -5.47,15.77 -3.04,9.1 -2.42,7.91 -4.86,15.17 -6.07,13.94 -4.86,12.74 -6.07,11.53 -3.04,5.45 -2.42,4.27 -6.07,8.48 -6.07,6.69 -26.1,22.44 -64.35,-3.03 -21.25,-7.29 -18.82,-11.52 -18.2,-14.56 -16.39,-18.8 -7.89,-9.73 -6.07,-11.53 -5.47,-12.74 -4.25,-13.96 -3.64,-15.17 -1.82,-16.37 -1.21,-17.6 0.6,-19.41 26.1,-165.03 29.75,-159.582 0.61,-8.508 1.21,-9.082 1.21,-16.988 v -7.89 l 0.61,-8.481 v -15.168 l -1.21,-13.973 -1.22,-6.078 -0.6,-1.211 v -1.82 -3.641 l -1.23,-2.418 -0.6,-1.199 v -1.84 l -1.21,-6.07 -1.21,-2.422 -0.6,-1.211 v -1.808 l -1.23,-6.09 -26.1,-48.531 -6.07,-10.329 -4.25,-10.3 -3.64,-9.711 -2.43,-9.699 -2.43,-7.891 -0.6,-7.879 -0.61,-7.289 1.21,-6.672 13.96,-38.23 13.97,-34.579 1.82,-22.468 -1.21,-11.512 -1.83,-6.68 -1.81,-7.879 -3.65,-7.293 -3.64,-8.488 -4.25,-9.109 -4.86,-9.711 -6.68,-9.078 -6.67,-9.731 -9.11,-9.691 -9.1,-10.918 -11.54,-10.344 -12.75,-11.527 -13.96,-11.512 -15.18,-12.129 -17.6,-21.23 -6.68,-9.719 -3.63,-9.731 -1.22,-8.468 1.22,-8.5 27.91,-3.032 31.58,16.989 22.45,12.133 48.57,33.378 50.38,44.891 52.2,46.731 32.79,20.617 20.02,10.922 18.83,9.73 16.38,10.891 7.29,5.468 7.89,4.872 12.74,10.918 11.54,10.898 9.71,10.934 8.51,10.929 6.07,11.528 5.46,10.902 4.24,10.937 4.26,10.321 2.42,10.902 1.82,9.707 1.22,9.731 0.6,9.082 -7.28,55.218 -10.32,47.332 -10.32,37.598 4.86,26.102 10.92,7.289 4.86,3.64 4.86,1.219 h 4.86 l 4.85,-1.82 4.24,-3.039 4.87,-4.871 4.85,-6.059 4.86,-8.5 3.03,-9.09 3.64,-10.308 2.43,-11.532 3.04,-13.968 1.82,-13.93 1.82,-16.414 1.21,-16.977 1.82,-18.801 v -98.902 l -3.64,-29.726 -3.03,-15.172 -3.65,-16.379 -9.7,-32.16 -6.09,-16.993 -6.67,-17.589 -7.89,-17 -9.1,-16.989 -10.93,-16.98 -11.53,-16.988 -13.96,-17 -13.96,-16.981 -16.39,-16.973 -17,-18.218 -9.71,-7.879 -9.72,-8.512 -21.24,-16.988 -23.68,-15.77 -24.89,-17 -27.31,-15.769 -29.14,-15.762 -15.78,-7.281 -15.78,-7.899 -32.79,-15.781 -21.25,-22.43 -46.74,-43.691 -13.35,-10.328 -12.74,-9.078 -12.14,-7.903 -12.15,-7.269 -8.49,-4.871 -7.29,-8.481 -6.69,-9.718 -4.83,-13.36 -17.61,-43.07 -13.97,-19.41 -17.6,3.629 -3.65,4.859 -1.82,5.461 v 6.062 l 2.44,6.09 4.85,12.129 35.22,36.399 2.41,4.839 2.43,4.27 1.22,4.844 1.21,4.25 -0.6,1.207 v 0.601 1.211 2.449 l -0.61,4.848 -1.22,6.063 -1.22,3.019 -0.6,2.449 -3.64,5.461 -3.03,4.239 -6.07,6.691 -7.29,4.84 -6.06,1.211 -26.11,-4.852 -12.14,-7.289 -9.72,-6.672 -9.71,-6.679 -10.92,-6.059 -10.93,-6.051 -12.13,-4.258 -12.15,-4.261 -13.35,-3.621 -12.75,-3.641 -106.24,-24.879 -41.28,1.82 -7.27,26.082 19.41,36.399 29.14,21.262 15.78,4.839 52.21,17.59 111.09,48.539 14.57,7.899 15.18,7.281 13.95,8.488 3.04,2.422 3.64,1.82 7.3,3.641 25.48,16.988 12.14,9.11 12.14,8.48 3.65,8.5 0.6,4.242 0.61,3.028 -1.21,3.051 -1.82,1.82 -26.11,-8.488 -38.24,-19.422 -83.16,-40.059 -76.49,-30.941 -32.78,-1.821 5.46,8.512 2.43,4.231 3.04,3.648 9.09,15.77 3.65,8.5 3.65,7.878 5.46,15.782 9.11,34.59 v 14.57 l -1.22,7.879 -0.61,7.293 0.61,14.558 1.82,7.879 3.04,7.301 3.03,8.48 4.86,7.891 5.46,8.481 7.29,7.898 84.98,57.012 97.12,90.418 5.47,7.289 6.07,6.672 11.53,14.558 10.93,15.18 2.44,4.23 3.02,3.661 6.07,7.269 9.72,16.992 10.32,16.981 9.71,17.597 9.71,17.602 3.64,1.828 4.85,1.813 4.86,2.429 6.07,2.418 5.47,4.25 6.67,3.653 15.18,9.699 7.29,6.679 3.03,3.629 3.65,3.032 6.07,7.3 6.06,7.879 1.83,4.84 2.42,4.27 4.25,9.679 3.65,10.332 3.64,10.309 -1.83,36.398 -12.13,76.472 -2.43,10.31 -1.83,8.48 -3.03,8.51 -2.43,6.66 -3.63,6.69 -3.04,5.46 -4.25,5.44 -3.65,3.67 -8.5,17.59 -5.46,0.6 -2.42,-0.6 -1.22,-1.82 -1.83,-1.82 -0.6,-3.05 -0.61,-7.28 1.21,-19.41 1.83,-29.12 -17,-104.371 -6.67,-19.411 -7.9,-21.238 -10.32,-21.23 -10.92,-22.461 -13.36,-22.438 -14.56,-23.672 -17,-24.257 -18.22,-25.493 -21.84,-24.269 -11.54,-12.129 -12.13,-12.152 -26.72,-24.27 -29.13,-25.469 -32.79,-24.281 -16.99,-12.141 -17.61,-12.117 -37.63,-24.281 -20.04,-12.121 -10.32,-6.07 -9.71,-6.688 -23.07,27.309 -6.67,9.109 -1.82,7.27 1.82,7.3 6.67,6.051 33.39,24.281 46.74,32.758 83.17,66.129 10.93,11.543 5.46,6.059 6.07,5.468 10.93,12.122 11.53,12.128 4.86,7.301 2.42,3.629 1.22,1.82 1.82,1.223 10.91,13.949 20.65,29.121 38.25,72.809 20.63,29.141 12.75,12.109 2.43,4.262 1.21,2.429 0.61,1.207 1.22,0.602 4.85,9.73 1.82,6.059 2.43,6.063 0.6,3.648 1.22,3.031 2.43,6.669 v 4.23 l 0.61,3.66 1.21,8.48 v 9.11 9.1 l -1.21,10.92 -1.21,10.94 -2.44,11.52 -2.42,11.51 -6.68,17.62 -3.65,-12.13 v -10.34 l 1.22,-7.27 1.22,-7.29 v -3.02 l 0.61,-3.64 v -3.05 l 0.6,-3.64 -0.6,-4.84 v -5.46 h -0.61 v -0.6 -1.23 -2.43 h -0.62 v -0.61 -1.2 -2.42 l -4.85,-15.79 -23.06,-1.82 -10.32,8.49 -5.46,26.09 -2.44,24.29 -1.21,23.64 2.44,21.86 8.48,44.91 1.82,11.5 1.84,10.33 0.6,10.32 -0.6,9.69 -9.12,30.96 12.15,-1.83 12.13,-27.92 9.11,-29.12 1.82,-20.62 4.85,-23.05 10.33,29.74 -12.14,60.65 -3.65,15.8 -4.25,15.77 -3.03,8.48 -2.43,7.91 -6.07,16.98 -7.28,18.19 -7.29,18.81 -8.5,19.42 -9.1,19.42 -11.53,21.22 -11.54,20.03 -13.36,20.03 -13.95,19.42 -16.4,19.41 -16.39,18.19 -18.21,18.22 -18.81,17.59 -20.65,17.59 -10.92,8.49 -10.93,7.3 -23.67,15.17 -24.89,12.73 -13.96,6.68 -13.36,5.44 -28.53,10.33 -30.34,9.11 -30.97,7.88 -6.68,-4.86 18.83,-17.59 10.31,-3.64 5.47,-2.43 6.69,-3.64 13.95,-7.28 15.78,-9.11 7.89,-4.24 7.28,-5.47 13.37,-12.72 5.46,-6.69 4.85,-7.87 4.25,-7.9 3.64,-9.09 -10.32,5.46 -23.07,12.74 -21.85,10.9 -21.85,10.33 -20.64,9.11 -40.67,15.17 -20.03,6.66 -18.82,4.25 -126.26,19.42 h -48.57 l -185.752,-10.32 -43.699,-7.89 -41.282,-10.3 -39.464,-10.93 -37.02,-12.75 -118.379,-48.54 -1.816,-1.81 -64.34,-34.58 -6.676,-12.15 5.465,-5.46 -5.465,-95.26 5.465,-123.17 1.816,-13.96 3.028,-13.95 3.043,-12.12 4.254,-11.54 4.242,-9.72 4.855,-9.09 5.465,-7.89 6.063,-6.67 18.832,-19.41 24.281,-20.65 27.918,-32.75 1.219,-0.6 1.207,-0.62 1.21,0.62 1.829,1.81 1.214,4.26 1.813,4.24 1.223,6.06 2.425,6.69 3.637,32.76 -1.211,9.69 -1.816,9.11 -3.035,9.12 -4.25,8.48 -24.289,26.1 -9.094,22.43 9.094,27.92 1.828,20.62 1.215,17.61 9.097,18.81 12.149,19.4 3.027,9.11 1.223,8.49 -0.614,8.51 -1.82,8.47 -19.414,24.29 -4.863,33.37 8.496,29.12 -0.606,3.64 v 3.02 l -1.215,4.27 -0.601,3.64 -2.438,5.44 -1.82,4.87 -3.035,6.07 -2.43,5.45 -3.64,7.29 34.597,15.17 34.614,12.75 33.375,11.51 33.394,10.32 32.172,9.11 15.785,4.24 16.379,3.02 30.973,5.46 30.953,4.27 211.849,5.44 143.87,-24.28 52.2,-15.77 15.78,-6.66 48.57,-38.21 36.42,-44.91 6.68,-49.16 3.64,-46.71 4.25,-9.1 3.04,-4.24 4.25,-4.26 9.1,-6.06 5.46,-2.43 6.68,-3.03 21.25,-6.08 20.64,-7.87 20.02,-9.11 20.04,-10.32 8.5,-4.85 7.88,-6.67 6.69,-6.68 6.07,-7.88 4.85,-7.9 4.25,-9.71 3.65,-9.7 3.04,-10.93 8.49,-49.75 -3.04,-120.14 -1.22,-11.53 -1.21,-11.5 -1.21,-9.73 -1.21,-9.11 -1.22,-3.02 -0.61,-3.641 -1.21,-6.661 -1.21,-4.867 -1.21,-4.242 -7.29,-18.809 15.78,-20.64 5.47,-9.699 5.46,-11.532 3.04,-12.148 3.03,-13.949 v -6.66 -3.032 l 0.6,-3.66 v -6.058 -6.661 l -1.21,-4.871 -1.21,-5.461 -1.83,-4.839 -1.21,-5.469 -80.13,-74.641 -109.27,-72.789 12.15,17.59 v 6.66 l -0.61,3.039 -1.21,2.43 h -12.14 l -18.82,-12.129 -31.57,-15.781 -32.78,-8.5 -30.96,-26.078 -13.95,-19.422 -94.1,-15.18 -192.424,-9.09 -139.012,10.309 -10.312,24.269 -24.289,37.012 -13.958,32.762 -8.503,27.918 -4.848,13.351 -5.465,12.739 -15.785,36.39 -15.785,27.32 -17.606,24.282 -4.855,17.59 -3.641,7.878 -3.035,6.668 -3.648,6.672 -3.637,4.879 -26.106,27.891 -13.957,24.281 -18.824,43.069 -2.422,4.86 -1.816,3.02 -2.438,3.04 -1.82,1.23 -3.035,1.82 h -2.43 -3.027 l -2.438,-1.82 -5.457,-4.27 -3.027,-7.88 -1.227,-4.85 v -6.68 -7.262 l 1.227,-9.109 8.484,-81.309 13.977,-109.21 15.769,-70.989 12.141,-26.101 13.965,-21.231 -6.066,-0.597 -3.645,-1.821 -1.816,-2.429 1.211,-3.653 20.636,-13.961 74.668,-20.617 152.965,-27.922 220.361,-4.847 16.99,-3.633 13.96,-6.071 15.79,-9.699 5.46,-4.269 4.86,-6.668 2.42,-7.891 1.22,-9.09 -1.82,-4.84 -1.21,-5.472 -2.43,-4.867 -1.22,-2.411 -0.61,-1.211 v -1.839 l -6.07,-9.7 -3.64,-4.242 -3.64,-4.871 -31.57,-31.547 h -10.32 -5.45 l -4.86,-0.59 -23.07,-1.222 h -12.76 -13.35 -27.92 l -31.56,1.222 -32.78,1.2 -36.425,2.418 -37.633,2.453 -21.25,2.406 -20.637,2.434 -10.93,1.816 -10.32,1.211 -10.93,1.832 -10.32,1.199 -11.527,2.43 -10.934,1.84 -21.848,3.629 -23.058,4.839 -11.539,2.43 -10.922,1.813 -24.293,6.097 -12.141,3.012 -11.531,2.43 -24.281,6.691 -24.278,6.059 -25.5,7.871 -25.488,7.301 -13.351,4.226 -12.754,3.652 -25.492,7.891 -27.325,3.637 -1.808,-7.27 10.316,-24.269 13.953,-6.68 46.739,-21.238 154.191,-41.242 281.656,-34.61 15.18,-1.82 13.96,-2.418 12.14,-2.422 10.93,-2.418 8.5,-2.441 7.89,-2.418 6.07,-2.442 4.86,-3.039 9.11,-10.312 12.14,-26.078 26.1,-34.582 11.53,-9.707 12.76,-9.114 13.95,-6.66 15.18,-6.066 33.39,-22.461 6.07,-6.672 6.07,-9.707 4.86,-12.133 2.41,-6.68 3.04,-7.89 1.22,-7.278 0.61,-7.293 v -6.66 l -0.61,-1.207 v -1.832 -3.648 l -2.43,-5.442 -1.83,-2.429 -1.2,-3.032 -3.65,-4.867 -4.25,-4.84 -66.16,-9.113 -173.62,-4.859 -236.13,29.14 -32.777,7.891 -32.782,8.48 -32.781,10.329 -8.496,3.019 -7.894,2.434 -15.774,5.468 -32.781,12.731 -32.789,13.949 -32.781,15.168 -31.559,16.391 -15.781,6.679 -6.075,2.43 h -5.468 l -4.856,-3.039 -4.238,-6.07 v -9.09 l 29.742,-27.309 29.137,-21.23 118.363,-50.379 22.461,-7.281 25.496,-8.489 27.926,-8.48 30.355,-8.512 32.782,-8.48 35.203,-8.508 37.629,-8.481 41.293,-9.101 10.312,-7.301 4.246,-3.039 1.207,-1.809 1.836,-3.031 v -2.418 l 0.602,-3.64 -0.602,-3.653 v -4.859 l 1.813,-20.6095 0.609,-4.2578 1.817,-4.8515 2.437,-4.2422 4.246,-4.2696 4.25,-3.0195 5.453,-3.6406 6.074,-2.418 7.903,-3.0312 17.597,-1.8282 30.955,3.6407 3.04,2.4297 3.64,1.8085 2.43,2.418 2.43,2.4336 1.21,3.6602 1.83,3.6367 v 2.4219 1.1992 0.6211 h 0.6 l 0.61,3.6211 -3.65,8.5078 -4.85,3.6406 -12.15,7.301 v 4.828 l 8.5,8.512 6.68,3.64 13.96,5.449 52.21,1.809 8.5,-0.598 7.88,-1.211 13.37,-3.031 9.7,-3.039 7.29,-4.25 4.24,-4.238 1.84,-3.043 2.42,-4.238 3.64,-9.7113 3.64,-12.1406 15.79,-32.7696 24.28,-7.25 52.21,3.6289 84.97,8.4922 72.85,10.918 65.56,26.0898 27.92,18.8126 36.43,-6.66 3.64,-1.832 3.03,-2.4377 3.64,-6.6719 v -7.8906 l -1.21,-4.8594 -1.82,-6.0508 -23.07,-44.8867 -1.82,-4.25 -0.6,-4.2735 v -3.6289 l 1.82,-3.6406 1.81,-2.42968 4.26,-3.03906 4.25,-2.42969 6.07,-2.42188 52.2,-1.80859 6.68,2.42188 7.88,3.03906 16.4,8.48046 8.5,5.457 9.71,6.0899 20.04,14.5625 80.12,69.1602 109.27,95.25 107.44,83.738 12.75,9.102 13.96,9.097 14.57,10.332 15.17,10.899 15.17,12.141 16.4,12.75 16.4,13.351 17.59,13.949 34,30.34 32.17,29.129 29.14,30.332 1.22,2.438 0.6,1.203 1.21,0.609 3.65,3.629 7.28,7.289 13.96,14.551 12.14,15.769 10.92,15.172 9.11,14.571 8.51,13.347 6.06,13.352 4.85,12.73 3.04,12.149 2.43,10.91 0.6,23.082 0.62,11.519 1.81,10.911 4.26,23.046 6.68,23.051 27.92,78.301 15.17,34.578 9.11,31.551 v 4.23 l 0.6,3.653 1.22,7.277 0.6,15.789 v 16.981 l -0.6,4.851 v 4.262 8.488 l -3.64,18.789 -3.04,8.512 -3.65,7.879 -4.84,7.89 -5.46,6.68 -6.08,6.668 -6.68,6.063 -48.56,52.199 -38.24,55.81 22.46,58.86 1.81,26.09 1.23,17.6 -0.61,8.48 v 7.29 l -1.22,7.87 -1.21,6.69 -4.86,12.76 -6.68,11.5 -7.28,9.71 -4.26,4.86 -3.64,3.65 -7.89,6.66 -27.92,17.6 -37.63,404.08 -7.3,28.52 -6.67,27.32 -7.28,26.7 -7.28,25.47 -8.51,25.5 -8.48,24.27 -9.11,23.65 -8.5,21.85 -10.32,22.44 -10.32,21.24 -10.93,20.64 -10.32,19.4 -12.14,19.42 -11.54,17.59 -12.13,17.61 -12.14,15.77 -26.72,32.77 -13.96,15.16 -13.35,13.97 -27.92,27.89 -27.93,24.28 -29.13,23.06 -29.75,20.02 -30.35,18.21 -30.36,15.77 -31.55,15.16 -30.97,12.75 -30.35,11.53 -29.73,9.7 -30.37,9.11 -29.74,7.27 -29.14,5.47 -29.13,3.64 v 0" />
      <path
         id="path34"
         style="fill:#100f0d;fill-opacity:1;fill-rule:evenodd;stroke:none"
         d="m 689.586,336.738 1.227,4.852 -0.614,2.418 -1.219,1.222 -0.605,0.598 -3.027,2.453 -3.047,1.199 -4.856,2.438 -3.031,1.203 -2.434,0.598 -6.671,2.441 -7.286,1.199 -1.812,20.641 -10.328,41.859 -3.035,5.469 -2.422,4.242 -6.074,7.879 -4.254,3.653 -3.649,2.429 -8.484,4.25 -50.387,15.168 -22.461,7.289 -20.637,-8.508 -4.851,-1.82 -3.656,-3.031 -5.453,-6.688 -4.258,-7.871 -1.207,-10.332 1.824,-24.269 v -3.629 l -16.996,5.469 -9.113,-1.84 -8.5,-3.629 15.789,-13.969 L 565.758,361 689.586,336.738 v 0" />
    </g>
  </g>
</svg>
